# xmcd
#
# Track frame offsets:
#	225
#	11235
#	26946
#	34952
#	50564
#	58941
#	74689
#	92568
#	105257
#	123161
#	136060
#	153037
#
# Disc length: 2214 seconds
#
# Revision: 1
# Processed by: cddbd v1.5.2PL0 Copyright (c) Steve Scherf et al.
# Submitted via: audiograbber 1.83.01
#
DISCID=a108a30c
DTITLE=Amy Millan - Honey From The Tombs
DYEAR=1900
DGENRE=Country
TTITLE0=Losin You
TTITLE1=Skinny Boy
TTITLE2=Ruby II
TTITLE3=Baby I
TTITLE4=Headsfull
TTITLE5=Wayward And Parliament
TTITLE6=Hard Hearted (Ode To Thoreau)
TTITLE7=Blue In Yr Eye
TTITLE8=Come Home Loaded Roadie
TTITLE9=All The Miles
TTITLE10=He Brings Out The Whiskey In Me
TTITLE11=Pour Me Up Another
EXTD=Amy Millan from the Stars
EXTT0=
EXTT1=
EXTT2=
EXTT3=
EXTT4=
EXTT5=
EXTT6=
EXTT7=
EXTT8=
EXTT9=
EXTT10=
EXTT11=
PLAYORDER=
